<?xml version="1.0" standalone="no"?>
<!DOCTYPE svg PUBLIC "-//W3C//DTD SVG 20010904//EN"
 "http://www.w3.org/TR/2001/REC-SVG-20010904/DTD/svg10.dtd">
<svg version="1.0" xmlns="http://www.w3.org/2000/svg"
 width="260.000000pt" height="260.000000pt" viewBox="0 0 260.000000 260.000000"
 preserveAspectRatio="xMidYMid meet">
<metadata>
Created by potrace 1.11, written by Peter Selinger 2001-2013
</metadata>
<g transform="translate(0.000000,260.000000) scale(0.100000,-0.100000)"
fill="#000000" stroke="none">
<path d="M1073 2371 c-127 -43 -203 -142 -301 -391 -83 -210 -102 -260 -102
-265 0 -3 361 -6 803 -7 l802 -3 37 -28 c67 -52 67 -51 65 -622 -2 -573 1
-546 -78 -597 l-39 -25 -952 -1 c-935 -1 -954 0 -995 19 -25 12 -52 36 -65 57
l-23 37 0 525 c0 479 2 528 17 557 28 51 73 76 147 82 l65 6 42 108 42 108
-116 -2 c-100 -1 -126 -5 -182 -27 -108 -43 -195 -144 -228 -263 -5 -21 -9
-257 -8 -585 l1 -549 32 -68 c36 -76 107 -152 168 -181 96 -46 87 -45 1104
-45 1062 1 1014 -2 1116 64 61 39 105 92 143 172 l27 58 1 550 c1 594 1 601
-53 692 -27 46 -100 116 -147 140 -81 42 -93 43 -763 43 -354 0 -643 3 -643 6
0 18 77 159 105 191 l33 38 243 2 c265 3 309 -3 347 -52 18 -23 24 -24 155
-24 76 -1 137 2 137 5 0 3 -19 38 -41 77 -58 101 -121 158 -206 187 -65 23
-83 24 -353 27 -251 2 -291 0 -337 -16z"/>
<path d="M787 1480 c-121 -38 -187 -116 -188 -225 -2 -131 81 -207 300 -275
90 -27 124 -55 124 -99 0 -49 -23 -65 -101 -69 -50 -2 -76 1 -102 15 -32 17
-36 23 -44 78 l-8 61 -82 -2 c-44 -1 -83 -2 -86 -3 -3 0 -5 -45 -5 -98 0 -109
1 -112 76 -159 135 -85 340 -89 464 -9 125 81 135 263 20 363 -45 40 -93 65
-181 93 -75 24 -164 65 -165 77 0 4 -2 15 -4 24 -9 46 68 84 146 73 74 -11 86
-20 94 -67 12 -77 7 -73 95 -73 44 0 80 2 81 5 0 3 1 46 2 95 3 89 3 90 -29
121 -81 78 -278 114 -407 74z"/>
<path d="M1557 1489 c-129 -31 -235 -141 -270 -280 -32 -124 -15 -293 39 -386
51 -88 148 -160 239 -178 102 -19 258 3 335 48 82 48 80 41 80 229 l0 168
-160 0 c-145 0 -160 -2 -161 -17 -2 -34 0 -135 3 -138 3 -3 62 -11 101 -14 13
-1 8 -99 -5 -103 -7 -3 -39 -6 -71 -7 -136 -6 -208 81 -208 251 0 174 75 270
204 263 89 -5 102 -15 116 -85 l12 -61 82 3 82 3 0 94 c1 91 0 95 -27 119 -90
80 -267 122 -391 91z"/>
</g>
</svg>
